# xmcd CD database file
#
# Track frame offsets:
#	150
#	28210
#	60880
#	81232
#	103525
#	137167
#
# Disc length: 2184 seconds
#
# Revision: 0
# Processed by: cddbd v1.5.2PL0 Copyright (c) Steve Scherf et al.
# Submitted via: CDex 1.51
#
DISCID=47088606
DTITLE=Karl Drewo  - Clap Hands Here Comes Charlie
DYEAR=1961
DGENRE=Jazz
TTITLE0=Young Bucks
TTITLE1=I'm Getting Sentimental Over You
TTITLE2=Clap Hands Here Comes Charlie
TTITLE3=Limehouse Blues
TTITLE4=Foot Pattin'
TTITLE5=J.L.K.
EXTD=YEAR: 1961
EXTT0=
EXTT1=
EXTT2=
EXTT3=
EXTT4=
EXTT5=
PLAYORDER=
